<svg xmlns="http://www.w3.org/2000/svg" viewBox="0 0 91.72 48.13"><defs><style>.cls-1{fill:#df2030;}.cls-2{fill:#e82728;}.cls-3{fill:#c01f26;}.cls-4{fill:#facc19;}</style></defs><g id="Layer_2" data-name="Layer 2"><g id="Layer_1-2" data-name="Layer 1"><polygon class="cls-1" points="91.72 0.2 72.45 14.36 46.05 14.98 24.33 30.05 7.39 30 6.04 29.99 0 29.97 6.04 25.54 7.39 24.55 40.79 0 91.72 0.2"/><polygon class="cls-2" points="55.06 40.69 46.05 14.99 24.33 30.05 29.83 45.73 43.76 42.95 55.06 40.69"/><polygon class="cls-3" points="77.96 30.05 72.46 14.36 46.05 14.99 55.06 40.69 65.13 36.01 77.96 30.05"/><polygon class="cls-3" points="24.33 30.05 46.45 16.14 46.05 14.99 24.33 30.05"/><polygon class="cls-4" points="7.39 24.55 7.39 37.78 6.04 37.78 6.04 25.54 7.39 24.55"/><polygon class="cls-4" points="7.73 39.34 7.73 47.89 6.39 48.13 6.39 39.34 7.61 39.06 7.73 39.34"/><polygon class="cls-4" points="11.1 47.28 9.74 47.52 7.73 42.79 6.39 39.63 6.39 39.34 7.61 39.06 7.73 39.34 11.1 47.28"/><circle class="cls-4" cx="6.71" cy="39.06" r="2.03"/><circle class="cls-3" cx="6.71" cy="39.06" r="1.4"/></g></g></svg>